<mxfile host="app.diagrams.net" agent="Mozilla/5.0 (Windows NT 10.0; Win64; x64) AppleWebKit/537.36 (KHTML, like Gecko) Chrome/131.0.0.0 Safari/537.36" version="25.0.3">
  <diagram name="Page-1" id="_-DAqnyh9MQHPKz26vVc">
    <mxGraphModel dx="1687" dy="878" grid="1" gridSize="10" guides="1" tooltips="1" connect="1" arrows="1" fold="1" page="1" pageScale="1" pageWidth="850" pageHeight="1100" math="0" shadow="0">
      <root>
        <mxCell id="0" />
        <mxCell id="1" parent="0" />
        <mxCell id="0JFzZVg47vKgnQ_UOa2e-5" style="edgeStyle=orthogonalEdgeStyle;rounded=0;orthogonalLoop=1;jettySize=auto;html=1;entryX=0.5;entryY=0;entryDx=0;entryDy=0;" edge="1" parent="1" source="0JFzZVg47vKgnQ_UOa2e-1" target="0JFzZVg47vKgnQ_UOa2e-3">
          <mxGeometry relative="1" as="geometry" />
        </mxCell>
        <mxCell id="0JFzZVg47vKgnQ_UOa2e-1" value="&lt;font style=&quot;font-size: 24px;&quot;&gt;start&lt;/font&gt;" style="strokeWidth=2;html=1;shape=mxgraph.flowchart.start_1;whiteSpace=wrap;" vertex="1" parent="1">
          <mxGeometry x="375" y="40" width="100" height="60" as="geometry" />
        </mxCell>
        <mxCell id="0JFzZVg47vKgnQ_UOa2e-2" value="&lt;font style=&quot;font-size: 24px;&quot;&gt;end&lt;/font&gt;" style="strokeWidth=2;html=1;shape=mxgraph.flowchart.start_1;whiteSpace=wrap;" vertex="1" parent="1">
          <mxGeometry x="1030" y="630" width="100" height="60" as="geometry" />
        </mxCell>
        <mxCell id="0JFzZVg47vKgnQ_UOa2e-6" style="edgeStyle=orthogonalEdgeStyle;rounded=0;orthogonalLoop=1;jettySize=auto;html=1;entryX=0.5;entryY=0;entryDx=0;entryDy=0;" edge="1" parent="1" source="0JFzZVg47vKgnQ_UOa2e-3" target="0JFzZVg47vKgnQ_UOa2e-4">
          <mxGeometry relative="1" as="geometry" />
        </mxCell>
        <mxCell id="0JFzZVg47vKgnQ_UOa2e-3" value="input score" style="shape=parallelogram;perimeter=parallelogramPerimeter;whiteSpace=wrap;html=1;fixedSize=1;" vertex="1" parent="1">
          <mxGeometry x="288" y="150" width="275" height="50" as="geometry" />
        </mxCell>
        <mxCell id="0JFzZVg47vKgnQ_UOa2e-32" style="edgeStyle=orthogonalEdgeStyle;rounded=0;orthogonalLoop=1;jettySize=auto;html=1;entryX=0.5;entryY=0;entryDx=0;entryDy=0;" edge="1" parent="1" source="0JFzZVg47vKgnQ_UOa2e-4" target="0JFzZVg47vKgnQ_UOa2e-7">
          <mxGeometry relative="1" as="geometry" />
        </mxCell>
        <mxCell id="0JFzZVg47vKgnQ_UOa2e-4" value="switch (score / 5)" style="rhombus;whiteSpace=wrap;html=1;" vertex="1" parent="1">
          <mxGeometry x="354.5" y="250" width="142" height="70" as="geometry" />
        </mxCell>
        <mxCell id="0JFzZVg47vKgnQ_UOa2e-24" style="edgeStyle=orthogonalEdgeStyle;rounded=0;orthogonalLoop=1;jettySize=auto;html=1;entryX=0;entryY=0.5;entryDx=0;entryDy=0;" edge="1" parent="1" source="0JFzZVg47vKgnQ_UOa2e-7" target="0JFzZVg47vKgnQ_UOa2e-15">
          <mxGeometry relative="1" as="geometry" />
        </mxCell>
        <mxCell id="0JFzZVg47vKgnQ_UOa2e-7" value="case 16" style="rhombus;whiteSpace=wrap;html=1;" vertex="1" parent="1">
          <mxGeometry x="354" y="350" width="142" height="70" as="geometry" />
        </mxCell>
        <mxCell id="0JFzZVg47vKgnQ_UOa2e-25" style="edgeStyle=orthogonalEdgeStyle;rounded=0;orthogonalLoop=1;jettySize=auto;html=1;entryX=0;entryY=0.5;entryDx=0;entryDy=0;" edge="1" parent="1" source="0JFzZVg47vKgnQ_UOa2e-8" target="0JFzZVg47vKgnQ_UOa2e-16">
          <mxGeometry relative="1" as="geometry" />
        </mxCell>
        <mxCell id="0JFzZVg47vKgnQ_UOa2e-8" value="case 15" style="rhombus;whiteSpace=wrap;html=1;" vertex="1" parent="1">
          <mxGeometry x="354" y="450" width="142" height="70" as="geometry" />
        </mxCell>
        <mxCell id="0JFzZVg47vKgnQ_UOa2e-26" style="edgeStyle=orthogonalEdgeStyle;rounded=0;orthogonalLoop=1;jettySize=auto;html=1;entryX=0;entryY=0.5;entryDx=0;entryDy=0;" edge="1" parent="1" source="0JFzZVg47vKgnQ_UOa2e-9" target="0JFzZVg47vKgnQ_UOa2e-17">
          <mxGeometry relative="1" as="geometry" />
        </mxCell>
        <mxCell id="0JFzZVg47vKgnQ_UOa2e-9" value="case 14" style="rhombus;whiteSpace=wrap;html=1;" vertex="1" parent="1">
          <mxGeometry x="354" y="550" width="142" height="70" as="geometry" />
        </mxCell>
        <mxCell id="0JFzZVg47vKgnQ_UOa2e-30" style="edgeStyle=orthogonalEdgeStyle;rounded=0;orthogonalLoop=1;jettySize=auto;html=1;entryX=0;entryY=0.5;entryDx=0;entryDy=0;" edge="1" parent="1" source="0JFzZVg47vKgnQ_UOa2e-10" target="0JFzZVg47vKgnQ_UOa2e-18">
          <mxGeometry relative="1" as="geometry" />
        </mxCell>
        <mxCell id="0JFzZVg47vKgnQ_UOa2e-10" value="cas 13" style="rhombus;whiteSpace=wrap;html=1;" vertex="1" parent="1">
          <mxGeometry x="354" y="660" width="142" height="70" as="geometry" />
        </mxCell>
        <mxCell id="0JFzZVg47vKgnQ_UOa2e-29" style="edgeStyle=orthogonalEdgeStyle;rounded=0;orthogonalLoop=1;jettySize=auto;html=1;entryX=0;entryY=0.5;entryDx=0;entryDy=0;" edge="1" parent="1" source="0JFzZVg47vKgnQ_UOa2e-11" target="0JFzZVg47vKgnQ_UOa2e-19">
          <mxGeometry relative="1" as="geometry" />
        </mxCell>
        <mxCell id="0JFzZVg47vKgnQ_UOa2e-11" value="cas 12" style="rhombus;whiteSpace=wrap;html=1;" vertex="1" parent="1">
          <mxGeometry x="354" y="760" width="142" height="70" as="geometry" />
        </mxCell>
        <mxCell id="0JFzZVg47vKgnQ_UOa2e-28" style="edgeStyle=orthogonalEdgeStyle;rounded=0;orthogonalLoop=1;jettySize=auto;html=1;entryX=0;entryY=0.5;entryDx=0;entryDy=0;" edge="1" parent="1" source="0JFzZVg47vKgnQ_UOa2e-12" target="0JFzZVg47vKgnQ_UOa2e-20">
          <mxGeometry relative="1" as="geometry" />
        </mxCell>
        <mxCell id="0JFzZVg47vKgnQ_UOa2e-12" value="cas 11" style="rhombus;whiteSpace=wrap;html=1;" vertex="1" parent="1">
          <mxGeometry x="354" y="860" width="142" height="70" as="geometry" />
        </mxCell>
        <mxCell id="0JFzZVg47vKgnQ_UOa2e-27" style="edgeStyle=orthogonalEdgeStyle;rounded=0;orthogonalLoop=1;jettySize=auto;html=1;entryX=0;entryY=0.5;entryDx=0;entryDy=0;" edge="1" parent="1" source="0JFzZVg47vKgnQ_UOa2e-13" target="0JFzZVg47vKgnQ_UOa2e-21">
          <mxGeometry relative="1" as="geometry" />
        </mxCell>
        <mxCell id="0JFzZVg47vKgnQ_UOa2e-13" value="cas 10" style="rhombus;whiteSpace=wrap;html=1;" vertex="1" parent="1">
          <mxGeometry x="354" y="960" width="142" height="70" as="geometry" />
        </mxCell>
        <mxCell id="0JFzZVg47vKgnQ_UOa2e-23" style="edgeStyle=orthogonalEdgeStyle;rounded=0;orthogonalLoop=1;jettySize=auto;html=1;entryX=0;entryY=0.5;entryDx=0;entryDy=0;" edge="1" parent="1" source="0JFzZVg47vKgnQ_UOa2e-14" target="0JFzZVg47vKgnQ_UOa2e-22">
          <mxGeometry relative="1" as="geometry" />
        </mxCell>
        <mxCell id="0JFzZVg47vKgnQ_UOa2e-14" value="default" style="rhombus;whiteSpace=wrap;html=1;" vertex="1" parent="1">
          <mxGeometry x="354" y="1070" width="142" height="70" as="geometry" />
        </mxCell>
        <mxCell id="0JFzZVg47vKgnQ_UOa2e-15" value="output&lt;br&gt;&quot;A&quot;" style="shape=parallelogram;perimeter=parallelogramPerimeter;whiteSpace=wrap;html=1;fixedSize=1;" vertex="1" parent="1">
          <mxGeometry x="563" y="370" width="160" height="30" as="geometry" />
        </mxCell>
        <mxCell id="0JFzZVg47vKgnQ_UOa2e-16" value="output&lt;br&gt;&quot;B+&quot;" style="shape=parallelogram;perimeter=parallelogramPerimeter;whiteSpace=wrap;html=1;fixedSize=1;" vertex="1" parent="1">
          <mxGeometry x="563" y="470" width="160" height="30" as="geometry" />
        </mxCell>
        <mxCell id="0JFzZVg47vKgnQ_UOa2e-34" style="edgeStyle=orthogonalEdgeStyle;rounded=0;orthogonalLoop=1;jettySize=auto;html=1;entryX=0;entryY=0.5;entryDx=0;entryDy=0;entryPerimeter=0;" edge="1" parent="1" source="0JFzZVg47vKgnQ_UOa2e-17" target="0JFzZVg47vKgnQ_UOa2e-2">
          <mxGeometry relative="1" as="geometry">
            <mxPoint x="870" y="690" as="targetPoint" />
          </mxGeometry>
        </mxCell>
        <mxCell id="0JFzZVg47vKgnQ_UOa2e-17" value="output&lt;br&gt;&quot;B&quot;" style="shape=parallelogram;perimeter=parallelogramPerimeter;whiteSpace=wrap;html=1;fixedSize=1;" vertex="1" parent="1">
          <mxGeometry x="563" y="570" width="160" height="30" as="geometry" />
        </mxCell>
        <mxCell id="0JFzZVg47vKgnQ_UOa2e-18" value="output&lt;br&gt;&quot;C+&quot;" style="shape=parallelogram;perimeter=parallelogramPerimeter;whiteSpace=wrap;html=1;fixedSize=1;" vertex="1" parent="1">
          <mxGeometry x="563" y="680" width="160" height="30" as="geometry" />
        </mxCell>
        <mxCell id="0JFzZVg47vKgnQ_UOa2e-19" value="output&lt;br&gt;&quot;C&quot;" style="shape=parallelogram;perimeter=parallelogramPerimeter;whiteSpace=wrap;html=1;fixedSize=1;" vertex="1" parent="1">
          <mxGeometry x="563" y="780" width="160" height="30" as="geometry" />
        </mxCell>
        <mxCell id="0JFzZVg47vKgnQ_UOa2e-20" value="output&lt;br&gt;&quot;D+&quot;" style="shape=parallelogram;perimeter=parallelogramPerimeter;whiteSpace=wrap;html=1;fixedSize=1;" vertex="1" parent="1">
          <mxGeometry x="563" y="880" width="160" height="30" as="geometry" />
        </mxCell>
        <mxCell id="0JFzZVg47vKgnQ_UOa2e-21" value="output&lt;br&gt;&quot;D&quot;" style="shape=parallelogram;perimeter=parallelogramPerimeter;whiteSpace=wrap;html=1;fixedSize=1;" vertex="1" parent="1">
          <mxGeometry x="563" y="980" width="160" height="30" as="geometry" />
        </mxCell>
        <mxCell id="0JFzZVg47vKgnQ_UOa2e-22" value="output&lt;br&gt;&quot;F&quot;" style="shape=parallelogram;perimeter=parallelogramPerimeter;whiteSpace=wrap;html=1;fixedSize=1;" vertex="1" parent="1">
          <mxGeometry x="563" y="1090" width="160" height="30" as="geometry" />
        </mxCell>
        <mxCell id="0JFzZVg47vKgnQ_UOa2e-33" style="edgeStyle=orthogonalEdgeStyle;rounded=0;orthogonalLoop=1;jettySize=auto;html=1;entryX=0;entryY=0.5;entryDx=0;entryDy=0;entryPerimeter=0;" edge="1" parent="1" source="0JFzZVg47vKgnQ_UOa2e-16" target="0JFzZVg47vKgnQ_UOa2e-2">
          <mxGeometry relative="1" as="geometry" />
        </mxCell>
        <mxCell id="0JFzZVg47vKgnQ_UOa2e-35" style="edgeStyle=orthogonalEdgeStyle;rounded=0;orthogonalLoop=1;jettySize=auto;html=1;entryX=0;entryY=0.5;entryDx=0;entryDy=0;entryPerimeter=0;" edge="1" parent="1" source="0JFzZVg47vKgnQ_UOa2e-18" target="0JFzZVg47vKgnQ_UOa2e-2">
          <mxGeometry relative="1" as="geometry" />
        </mxCell>
        <mxCell id="0JFzZVg47vKgnQ_UOa2e-36" style="edgeStyle=orthogonalEdgeStyle;rounded=0;orthogonalLoop=1;jettySize=auto;html=1;entryX=0;entryY=0.5;entryDx=0;entryDy=0;entryPerimeter=0;" edge="1" parent="1" source="0JFzZVg47vKgnQ_UOa2e-19" target="0JFzZVg47vKgnQ_UOa2e-2">
          <mxGeometry relative="1" as="geometry" />
        </mxCell>
        <mxCell id="0JFzZVg47vKgnQ_UOa2e-37" style="edgeStyle=orthogonalEdgeStyle;rounded=0;orthogonalLoop=1;jettySize=auto;html=1;entryX=0;entryY=0.5;entryDx=0;entryDy=0;entryPerimeter=0;" edge="1" parent="1" source="0JFzZVg47vKgnQ_UOa2e-20" target="0JFzZVg47vKgnQ_UOa2e-2">
          <mxGeometry relative="1" as="geometry" />
        </mxCell>
        <mxCell id="0JFzZVg47vKgnQ_UOa2e-38" style="edgeStyle=orthogonalEdgeStyle;rounded=0;orthogonalLoop=1;jettySize=auto;html=1;entryX=0;entryY=0.5;entryDx=0;entryDy=0;entryPerimeter=0;" edge="1" parent="1" source="0JFzZVg47vKgnQ_UOa2e-21" target="0JFzZVg47vKgnQ_UOa2e-2">
          <mxGeometry relative="1" as="geometry" />
        </mxCell>
        <mxCell id="0JFzZVg47vKgnQ_UOa2e-39" style="edgeStyle=orthogonalEdgeStyle;rounded=0;orthogonalLoop=1;jettySize=auto;html=1;entryX=0;entryY=0.5;entryDx=0;entryDy=0;entryPerimeter=0;" edge="1" parent="1" source="0JFzZVg47vKgnQ_UOa2e-22" target="0JFzZVg47vKgnQ_UOa2e-2">
          <mxGeometry relative="1" as="geometry" />
        </mxCell>
        <mxCell id="0JFzZVg47vKgnQ_UOa2e-40" style="edgeStyle=orthogonalEdgeStyle;rounded=0;orthogonalLoop=1;jettySize=auto;html=1;entryX=0;entryY=0.5;entryDx=0;entryDy=0;entryPerimeter=0;" edge="1" parent="1" source="0JFzZVg47vKgnQ_UOa2e-15" target="0JFzZVg47vKgnQ_UOa2e-2">
          <mxGeometry relative="1" as="geometry" />
        </mxCell>
      </root>
    </mxGraphModel>
  </diagram>
</mxfile>
